<?xml version="1.0" encoding="UTF-8"?>
<svg version="1.1" xmlns="http://www.w3.org/2000/svg" width="343" height="287">
<path d="M0 0 C1.12435959 -0.0099852 2.24871918 -0.0199704 3.40715027 -0.03025818 C5.78156871 -0.045417 8.1560508 -0.05248467 10.53051758 -0.05200195 C14.1457766 -0.05855353 17.75827448 -0.11303704 21.37304688 -0.16992188 C23.68618858 -0.17872676 25.99934326 -0.18467909 28.3125 -0.1875 C29.92074394 -0.21983482 29.92074394 -0.21983482 31.56147766 -0.25282288 C44.69924355 -0.1340607 51.78141608 8.47925538 60.515625 17.30078125 C61.55600183 18.34167782 62.59689981 19.38205371 63.63829041 20.42193604 C65.80195223 22.5856869 67.96041369 24.75444918 70.11499023 26.92724609 C72.88056515 29.71569141 75.65727963 32.49272635 78.43766117 35.26639938 C80.58009426 37.40550069 82.71752841 39.54953869 84.85336113 41.69522858 C85.8763313 42.72205089 86.90065699 43.74752459 87.92634773 44.77162933 C89.35045317 46.19536572 90.76733927 47.62631245 92.18383789 49.05761719 C92.991642 49.87002869 93.79944611 50.68244019 94.63172913 51.51947021 C96.35546875 53.50390625 96.35546875 53.50390625 96.35546875 55.50390625 C97.01546875 55.50390625 97.67546875 55.50390625 98.35546875 55.50390625 C98.68546875 56.16390625 99.01546875 56.82390625 99.35546875 57.50390625 C102.4337406 57.94268779 102.4337406 57.94268779 106.1640625 58.06640625 C107.18694115 58.12163452 107.18694115 58.12163452 108.23048401 58.17797852 C110.41761941 58.29579052 112.6050721 58.40126241 114.79296875 58.50390625 C117.66733914 58.63908156 120.54069675 58.78648201 123.4140625 58.94140625 C125.33690063 59.03228516 125.33690063 59.03228516 127.29858398 59.125 C130.35546875 59.50390625 130.35546875 59.50390625 132.35546875 61.50390625 C132.39794922 64.19042969 132.39794922 64.19042969 132.09765625 67.61328125 C131.93281738 69.50530273 131.93281738 69.50530273 131.76464844 71.43554688 C131.63091004 72.79193105 131.49448297 74.14805263 131.35546875 75.50390625 C131.28751099 76.16769287 131.21955322 76.83147949 131.14953613 77.51538086 C130.72262585 81.58102843 130.24587801 85.63880642 129.73583984 89.69482422 C129.56302084 91.08828071 129.39653159 92.4825344 129.23583984 93.87744141 C128.99973962 95.92663992 128.74617893 97.9729761 128.48828125 100.01953125 C128.27002686 101.81825684 128.27002686 101.81825684 128.04736328 103.65332031 C127.35546875 106.50390625 127.35546875 106.50390625 124.35546875 108.50390625 C122.16812134 108.8828125 122.16812134 108.8828125 119.59619141 109.06640625 C118.63153961 109.13988281 117.66688782 109.21335937 116.67300415 109.2890625 C115.63235809 109.35996094 114.59171204 109.43085938 113.51953125 109.50390625 C112.44802826 109.58511719 111.37652527 109.66632813 110.27255249 109.75 C106.84241707 110.00962471 103.41161333 110.25800115 99.98046875 110.50390625 C95.4719137 110.82802591 90.96433656 111.16289928 86.45703125 111.50390625 C85.42043365 111.57480469 84.38383606 111.64570313 83.31582642 111.71875 C82.3448703 111.79222656 81.37391418 111.86570312 80.37353516 111.94140625 C79.52320709 112.00199219 78.67287903 112.06257813 77.79678345 112.125 C75.06454678 112.54905903 72.8458275 113.30842073 70.35546875 114.50390625 C69.2320073 116.38078939 69.2320073 116.38078939 68.35546875 118.50390625 C66.5859375 120.5390625 66.5859375 120.5390625 64.54296875 122.56640625 C63.54330078 123.57380859 63.54330078 123.57380859 62.5234375 124.6015625 C60.26774257 126.58088399 57.94101545 127.99369069 55.35546875 129.50390625 C56.2677977 129.51421371 57.18012665 129.52452118 58.12010193 129.53514099 C66.69936879 129.63293886 75.27856382 129.73542753 83.85771084 129.84324551 C88.26880275 129.89851457 92.67990124 129.95194079 97.09106445 130.0012207 C101.34453862 130.0488057 105.59792964 130.10114611 109.85130501 130.156847 C111.47766118 130.17729723 113.10404017 130.19600581 114.73043633 130.21298027 C117.00063238 130.23696552 119.27066988 130.2670276 121.54077148 130.29858398 C122.83538803 130.31412827 124.13000458 130.32967255 125.46385193 130.34568787 C128.35546875 130.50390625 128.35546875 130.50390625 129.35546875 131.50390625 C129.39627658 133.50348989 129.39801231 135.50435879 129.35546875 137.50390625 C126.38546875 138.49390625 126.38546875 138.49390625 123.35546875 139.50390625 C123.60296875 140.55578125 123.85046875 141.60765625 124.10546875 142.69140625 C124.35546875 146.50390625 124.35546875 146.50390625 122.91796875 149.44140625 C119.84665196 151.91344171 118.12783008 152.25148077 114.265625 151.984375 C112.35546875 151.50390625 112.35546875 151.50390625 109.79296875 149.44140625 C108.35546875 146.50390625 108.35546875 146.50390625 109.35546875 139.50390625 C90.87546875 139.50390625 72.39546875 139.50390625 53.35546875 139.50390625 C53.85046875 142.96890625 53.85046875 142.96890625 54.35546875 146.50390625 C52.91796875 149.44140625 52.91796875 149.44140625 50.35546875 151.50390625 C47.52833998 152.21502453 45.18259752 152.21502453 42.35546875 151.50390625 C39.79296875 149.44140625 39.79296875 149.44140625 38.35546875 146.50390625 C38.50232263 142.24514375 38.98368588 140.06158055 41.35546875 136.50390625 C40.71609375 135.84390625 40.07671875 135.18390625 39.41796875 134.50390625 C37.35546875 131.50390625 37.35546875 131.50390625 37.05296326 127.6894989 C36.56377249 123.09945515 34.4139177 120.62563198 31.13305664 117.53442383 C30.58992325 116.99508713 30.04678986 116.45575043 29.48719788 115.90007019 C27.6998297 114.13276534 25.88933647 112.39126825 24.078125 110.6484375 C22.82707296 109.41808115 21.57778426 108.18592946 20.33018494 106.95207214 C17.04945781 103.71496767 13.74958703 100.49815854 10.44390869 97.28656006 C5.15240743 92.14076518 -0.11303783 86.96847681 -5.3715229 81.78897667 C-7.20882019 79.98601475 -9.05640558 78.19412306 -10.90550232 76.40327454 C-12.03489005 75.29757165 -13.16398018 74.19156467 -14.29272461 73.08520508 C-15.06504425 72.34556015 -15.06504425 72.34556015 -15.85296631 71.5909729 C-20.39299984 67.10851533 -21.88231347 63.47843027 -21.93505859 57.16625977 C-21.9478183 56.12490372 -21.960578 55.08354767 -21.97372437 54.01063538 C-21.97595001 52.89595383 -21.97817566 51.78127228 -21.98046875 50.6328125 C-21.98712555 49.4777269 -21.99378235 48.3226413 -22.00064087 47.1325531 C-22.01075505 44.6924702 -22.01545827 42.2523597 -22.01513672 39.81225586 C-22.01951136 36.08335779 -22.05585032 32.35564202 -22.09375 28.62695312 C-22.09961809 26.25391029 -22.10358754 23.88086184 -22.10546875 21.5078125 C-22.11983978 20.39515518 -22.13421082 19.28249786 -22.14901733 18.13612366 C-22.11380047 12.15810478 -21.99851133 8.02688057 -17.64453125 3.50390625 C-12.27700785 -0.41925406 -6.38784538 0.01977827 0 0 Z M-7.64453125 19.50390625 C-8.45535603 22.3561693 -8.41116207 24.64489205 -7.64453125 27.50390625 C-5.68513005 30.63031755 -5.68513005 30.63031755 -2.64453125 32.50390625 C0.56608663 32.92280843 0.56608663 32.92280843 3.35546875 32.50390625 C3.68546875 31.51390625 4.01546875 30.52390625 4.35546875 29.50390625 C5.15984375 29.38015625 5.96421875 29.25640625 6.79296875 29.12890625 C7.63859375 28.92265625 8.48421875 28.71640625 9.35546875 28.50390625 C10.78209094 25.65066188 10.66580743 23.66936076 10.35546875 20.50390625 C8.55553101 17.80399963 7.27169575 15.96201975 4.35546875 14.50390625 C-1.26950223 13.73686475 -3.93742123 15.26720908 -7.64453125 19.50390625 Z M106.35546875 65.50390625 C107.01546875 68.80390625 107.67546875 72.10390625 108.35546875 75.50390625 C110.00546875 75.50390625 111.65546875 75.50390625 113.35546875 75.50390625 C113.35546875 72.20390625 113.35546875 68.90390625 113.35546875 65.50390625 C111.04546875 65.50390625 108.73546875 65.50390625 106.35546875 65.50390625 Z M116.35546875 65.50390625 C116.35546875 68.80390625 116.35546875 72.10390625 116.35546875 75.50390625 C118.99546875 75.50390625 121.63546875 75.50390625 124.35546875 75.50390625 C125.49899791 73.21684794 125.45881314 71.91125863 125.41796875 69.37890625 C125.39734375 68.10015625 125.37671875 66.82140625 125.35546875 65.50390625 C122.38546875 65.50390625 119.41546875 65.50390625 116.35546875 65.50390625 Z M102.85546875 81.06640625 C100.85068094 84.32418644 101.06684016 86.75173458 101.35546875 90.50390625 C105.31546875 90.50390625 109.27546875 90.50390625 113.35546875 90.50390625 C113.35546875 86.87390625 113.35546875 83.24390625 113.35546875 79.50390625 C107.80261373 79.00735524 107.80261373 79.00735524 102.85546875 81.06640625 Z M116.35546875 79.50390625 C116.35546875 83.13390625 116.35546875 86.76390625 116.35546875 90.50390625 C118.35501621 90.54644981 120.35588511 90.54471408 122.35546875 90.50390625 C124.01889712 88.84047788 123.71594972 86.72133535 123.91796875 84.44140625 C124.00175781 83.52230469 124.08554688 82.60320312 124.171875 81.65625 C124.23246094 80.94597656 124.29304687 80.23570313 124.35546875 79.50390625 C121.71546875 79.50390625 119.07546875 79.50390625 116.35546875 79.50390625 Z M97.35546875 88.50390625 C97.02546875 89.16390625 96.69546875 89.82390625 96.35546875 90.50390625 C97.01546875 90.50390625 97.67546875 90.50390625 98.35546875 90.50390625 C98.02546875 89.84390625 97.69546875 89.18390625 97.35546875 88.50390625 Z M86.35546875 98.50390625 C86.35546875 100.15390625 86.35546875 101.80390625 86.35546875 103.50390625 C92.29546875 103.00890625 92.29546875 103.00890625 98.35546875 102.50390625 C98.35546875 99.53390625 98.35546875 96.56390625 98.35546875 93.50390625 C92.47276768 92.80358469 90.24632516 94.33513153 86.35546875 98.50390625 Z M101.35546875 93.50390625 C101.35546875 96.14390625 101.35546875 98.78390625 101.35546875 101.50390625 C105.31546875 101.50390625 109.27546875 101.50390625 113.35546875 101.50390625 C113.35546875 98.86390625 113.35546875 96.22390625 113.35546875 93.50390625 C109.39546875 93.50390625 105.43546875 93.50390625 101.35546875 93.50390625 Z M116.35546875 93.50390625 C116.35546875 95.81390625 116.35546875 98.12390625 116.35546875 100.50390625 C118.00546875 100.50390625 119.65546875 100.50390625 121.35546875 100.50390625 C121.68546875 98.19390625 122.01546875 95.88390625 122.35546875 93.50390625 C120.37546875 93.50390625 118.39546875 93.50390625 116.35546875 93.50390625 Z M44.35546875 140.50390625 C43.69546875 141.16390625 43.03546875 141.82390625 42.35546875 142.50390625 C42.67398645 144.61211422 42.67398645 144.61211422 43.35546875 146.50390625 C45.75266307 147.18349228 45.75266307 147.18349228 48.35546875 147.50390625 C49.01546875 146.84390625 49.67546875 146.18390625 50.35546875 145.50390625 C50.03695105 143.39569828 50.03695105 143.39569828 49.35546875 141.50390625 C46.95827443 140.82432022 46.95827443 140.82432022 44.35546875 140.50390625 Z M114.35546875 140.50390625 C113.69546875 141.16390625 113.03546875 141.82390625 112.35546875 142.50390625 C112.67588272 145.10671193 112.67588272 145.10671193 113.35546875 147.50390625 C115.77192657 147.67078073 115.77192657 147.67078073 118.35546875 147.50390625 C119.01546875 146.84390625 119.67546875 146.18390625 120.35546875 145.50390625 C120.03695105 143.39569828 120.03695105 143.39569828 119.35546875 141.50390625 C116.95827443 140.82432022 116.95827443 140.82432022 114.35546875 140.50390625 Z " fill="#FB8208" transform="translate(109.64453125,30.49609375)"/>
<path d="M0 0 C3.34925302 0.09485902 6.67509144 0.60318302 10 1 C11.81757812 1.16822266 11.81757812 1.16822266 13.671875 1.33984375 C14.91453125 1.47519531 16.1571875 1.61054687 17.4375 1.75 C19.19900391 1.92789063 19.19900391 1.92789063 20.99609375 2.109375 C24 3 24 3 25.6796875 5.0078125 C27.44721453 9.01350986 29.1164252 13.03823756 30.6875 17.125 C31.00783203 17.93582031 31.32816406 18.74664062 31.65820312 19.58203125 C31.96048828 20.36191406 32.26277344 21.14179687 32.57421875 21.9453125 C32.84838623 22.65187988 33.12255371 23.35844727 33.4050293 24.08642578 C34 26 34 26 34 29 C34.65742188 28.98839844 35.31484375 28.97679688 35.9921875 28.96484375 C41.83670016 28.90940799 47.61385606 29.0809521 53.4453125 29.4765625 C62.04312718 30.00173011 70.63817829 30.14516161 79.25 30.24609375 C80.26371862 30.2585592 80.26371862 30.2585592 81.29791641 30.27127647 C87.6480633 30.34920692 93.99825832 30.4202054 100.34863281 30.47680664 C103.85783877 30.508513 107.3668257 30.54969901 110.87585449 30.59700203 C112.84457162 30.62072706 114.8134084 30.63374325 116.78222656 30.64659119 C117.96526367 30.66323318 119.14830078 30.67987518 120.3671875 30.69702148 C121.93122314 30.71248268 121.93122314 30.71248268 123.52685547 30.72825623 C126 31 126 31 128 33 C128.04248047 35.68652344 128.04248047 35.68652344 127.7421875 39.109375 C127.63229492 40.37072266 127.52240234 41.63207031 127.40917969 42.93164062 C127.27544129 44.2880248 127.13901422 45.64414638 127 47 C126.93204224 47.66378662 126.86408447 48.32757324 126.79406738 49.01147461 C126.3671571 53.07712218 125.89040926 57.13490017 125.38037109 61.19091797 C125.20755209 62.58437446 125.04106284 63.97862815 124.88037109 65.37353516 C124.64427087 67.42273367 124.39071018 69.46906985 124.1328125 71.515625 C123.98730957 72.71477539 123.84180664 73.91392578 123.69189453 75.14941406 C123 78 123 78 120 80 C117.81265259 80.37890625 117.81265259 80.37890625 115.24072266 80.5625 C114.27607086 80.63597656 113.31141907 80.70945312 112.3175354 80.78515625 C111.27688934 80.85605469 110.23624329 80.92695313 109.1640625 81 C108.09255951 81.08121094 107.02105652 81.16242188 105.91708374 81.24609375 C102.48694832 81.50571846 99.05614458 81.7540949 95.625 82 C91.11644495 82.32411966 86.60886781 82.65899303 82.1015625 83 C81.0649649 83.07089844 80.02836731 83.14179688 78.96035767 83.21484375 C77.98940155 83.28832031 77.01844543 83.36179687 76.01806641 83.4375 C75.16773834 83.49808594 74.31741028 83.55867188 73.4413147 83.62109375 C70.70907803 84.04515278 68.49035875 84.80451448 66 86 C64.87653855 87.87688314 64.87653855 87.87688314 64 90 C62.23046875 92.03515625 62.23046875 92.03515625 60.1875 94.0625 C59.52105469 94.73410156 58.85460937 95.40570313 58.16796875 96.09765625 C55.91227382 98.07697774 53.5855467 99.48978444 51 101 C51.91232895 101.01030746 52.8246579 101.02061493 53.76463318 101.03123474 C62.34390004 101.12903261 70.92309507 101.23152128 79.50224209 101.33933926 C83.913334 101.39460832 88.32443249 101.44803454 92.7355957 101.49731445 C96.98906987 101.54489945 101.24246089 101.59723986 105.49583626 101.65294075 C107.12219243 101.67339098 108.74857142 101.69209956 110.37496758 101.70907402 C112.64516363 101.73305927 114.91520113 101.76312135 117.18530273 101.79467773 C119.12722755 101.81799416 119.12722755 101.81799416 121.10838318 101.84178162 C124 102 124 102 125 103 C125.04080783 104.99958364 125.04254356 107.00045254 125 109 C123.02 109.66 121.04 110.32 119 111 C119.2475 112.051875 119.495 113.10375 119.75 114.1875 C120 118 120 118 118.5625 120.9375 C115.49118321 123.40953546 113.77236133 123.74757452 109.91015625 123.48046875 C108 123 108 123 105.4375 120.9375 C104 118 104 118 105 111 C86.52 111 68.04 111 49 111 C49.495 114.465 49.495 114.465 50 118 C48.5625 120.9375 48.5625 120.9375 46 123 C43.17287123 123.71111828 40.82712877 123.71111828 38 123 C35.4375 120.9375 35.4375 120.9375 34 118 C34.14685388 113.7412375 34.62821713 111.5576743 37 108 C36.34 107.319375 35.68 106.63875 35 105.9375 C32.46521206 102.21453021 32.38824101 100.43525267 33 96 C35.7150889 89.38934878 40.24197234 86.04784423 46 82 C45.31020605 77.82583705 44.00083878 74.10744786 42.48046875 70.1640625 C42.22555664 69.49978241 41.97064453 68.83550232 41.70800781 68.15109253 C40.87157052 65.97427139 40.02950528 63.79967273 39.1875 61.625 C38.60616152 60.11407274 38.02519273 58.6030032 37.44458008 57.09179688 C34.47214558 49.36349779 31.47470665 41.64499925 28.46875 33.9296875 C27.91118688 32.49659266 27.35365053 31.0634874 26.79614258 29.63037109 C25.73784387 26.91021612 24.67452898 24.19209555 23.6081543 21.47509766 C23.13289307 20.25612793 22.65763184 19.0371582 22.16796875 17.78125 C21.74797607 16.70939453 21.3279834 15.63753906 20.89526367 14.53320312 C20 12 20 12 20 10 C18.81921875 9.87882812 17.6384375 9.75765625 16.421875 9.6328125 C14.86453957 9.4639448 13.30725023 9.29465165 11.75 9.125 C10.58404297 9.00705078 10.58404297 9.00705078 9.39453125 8.88671875 C2.27568856 8.09573623 2.27568856 8.09573623 -1 6 C-1.042721 4.33388095 -1.04063832 2.66617115 -1 1 C-0.67 0.67 -0.34 0.34 0 0 Z M102 37 C102.66 40.3 103.32 43.6 104 47 C105.65 47 107.3 47 109 47 C109 43.7 109 40.4 109 37 C106.69 37 104.38 37 102 37 Z M112 37 C112 40.3 112 43.6 112 47 C114.64 47 117.28 47 120 47 C121.14352916 44.71294169 121.10334439 43.40735238 121.0625 40.875 C121.041875 39.59625 121.02125 38.3175 121 37 C118.03 37 115.06 37 112 37 Z M98.5 52.5625 C96.49521219 55.82028019 96.71137141 58.24782833 97 62 C100.96 62 104.92 62 109 62 C109 58.37 109 54.74 109 51 C103.44714498 50.50344899 103.44714498 50.50344899 98.5 52.5625 Z M112 51 C112 54.63 112 58.26 112 62 C113.99954746 62.04254356 116.00041636 62.04080783 118 62 C119.66342837 60.33657163 119.36048097 58.2174291 119.5625 55.9375 C119.64628906 55.01839844 119.73007813 54.09929687 119.81640625 53.15234375 C119.87699219 52.44207031 119.93757813 51.73179688 120 51 C117.36 51 114.72 51 112 51 Z M93 60 C92.67 60.66 92.34 61.32 92 62 C92.66 62 93.32 62 94 62 C93.67 61.34 93.34 60.68 93 60 Z M82 70 C82 71.65 82 73.3 82 75 C87.94 74.505 87.94 74.505 94 74 C94 71.03 94 68.06 94 65 C88.11729893 64.29967844 85.89085641 65.83122528 82 70 Z M97 65 C97 67.64 97 70.28 97 73 C100.96 73 104.92 73 109 73 C109 70.36 109 67.72 109 65 C105.04 65 101.08 65 97 65 Z M112 65 C112 67.31 112 69.62 112 72 C113.65 72 115.3 72 117 72 C117.33 69.69 117.66 67.38 118 65 C116.02 65 114.04 65 112 65 Z M40 112 C39.34 112.66 38.68 113.32 38 114 C38.3185177 116.10820797 38.3185177 116.10820797 39 118 C41.39719432 118.67958603 41.39719432 118.67958603 44 119 C44.66 118.34 45.32 117.68 46 117 C45.6814823 114.89179203 45.6814823 114.89179203 45 113 C42.60280568 112.32041397 42.60280568 112.32041397 40 112 Z M110 112 C109.34 112.66 108.68 113.32 108 114 C108.32041397 116.60280568 108.32041397 116.60280568 109 119 C111.41645782 119.16687448 111.41645782 119.16687448 114 119 C114.66 118.34 115.32 117.68 116 117 C115.6814823 114.89179203 115.6814823 114.89179203 115 113 C112.60280568 112.32041397 112.60280568 112.32041397 110 112 Z " fill="#2E1E14" transform="translate(114,59)"/>
<path d="M0 0 C1.32 0 2.64 0 4 0 C4 0.66 4 1.32 4 2 C5.16015625 2.09087891 5.16015625 2.09087891 6.34375 2.18359375 C12.25249543 2.65892599 18.12508141 3.20914557 24 4 C24 4.33 24 4.66 24 5 C22.02 5.33 20.04 5.66 18 6 C18.495 10.455 18.495 10.455 19 15 C20.65 15 22.3 15 24 15 C23.94779297 14.06027344 23.94779297 14.06027344 23.89453125 13.1015625 C23.86746094 12.28429687 23.84039062 11.46703125 23.8125 10.625 C23.76029297 9.40683594 23.76029297 9.40683594 23.70703125 8.1640625 C23.80371094 7.44992188 23.90039062 6.73578125 24 6 C28.04285347 3.30476436 31.42099892 3.62248656 36.1875 3.44140625 C39.24146864 2.96210284 40.15213134 2.40607899 42 0 C42.495 0.495 42.495 0.495 43 1 C42.80376953 11.03794348 41.32948681 21.06111802 40 31 C38.35 30.67 36.7 30.34 35 30 C33.99983813 32.00032373 33.50603992 33.83125748 33 36 C33 35.01 33 34.02 33 33 C31.02 33 29.04 33 27 33 C27 35.31 27 37.62 27 40 C28.65 40 30.3 40 32 40 C32.495 39.01 32.495 39.01 33 38 C32.67 39.32 32.34 40.64 32 42 C29.36 41.34 26.72 40.68 24 40 C24 37.69 24 35.38 24 33 C20.04 33 16.08 33 12 33 C12 35.64 12 38.28 12 41 C15.3 41 18.6 41 22 41 C22 41.33 22 41.66 22 42 C18.37 42 14.74 42 11 42 C11 40.68 11 39.36 11 38 C10.34 38 9.68 38 9 38 C9 36.35 9 34.7 9 33 C3.32870721 34.35580678 3.32870721 34.35580678 -1 38 C-1.66 38 -2.32 38 -3 38 C-3 39.65 -3 41.3 -3 43 C-12.46850826 44.78831859 -21.40432207 45.23889655 -31 45 C-33.57688169 40.57669127 -33.14796678 37.0308706 -33 32 C-29.04 32 -25.08 32 -21 32 C-21 31.34 -21 30.68 -21 30 C-26.28 30 -31.56 30 -37 30 C-38.67330996 26.00264842 -40.34032975 22.00301148 -42 18 C-42.391875 17.06027344 -42.78375 16.12054688 -43.1875 15.15234375 C-43.538125 14.29769531 -43.88875 13.44304687 -44.25 12.5625 C-44.72179687 11.41974609 -44.72179687 11.41974609 -45.203125 10.25390625 C-46.05139848 7.85462294 -46.52357309 5.49659071 -47 3 C-14.69210102 1.80611597 -14.69210102 1.80611597 0 2 C0 1.34 0 0.68 0 0 Z M27 5 C27 8.3 27 11.6 27 15 C29.64 15 32.28 15 35 15 C36.14352916 12.71294169 36.10334439 11.40735238 36.0625 8.875 C36.041875 7.59625 36.02125 6.3175 36 5 C33.03 5 30.06 5 27 5 Z M13.5 20.5625 C11.49521219 23.82028019 11.71137141 26.24782833 12 30 C15.96 30 19.92 30 24 30 C24 26.37 24 22.74 24 19 C18.44714498 18.50344899 18.44714498 18.50344899 13.5 20.5625 Z M27 19 C27 22.63 27 26.26 27 30 C28.99954746 30.04254356 31.00041636 30.04080783 33 30 C34.66342837 28.33657163 34.36048097 26.2174291 34.5625 23.9375 C34.64628906 23.01839844 34.73007813 22.09929687 34.81640625 21.15234375 C34.87699219 20.44207031 34.93757813 19.73179688 35 19 C32.36 19 29.72 19 27 19 Z M8 28 C7.67 28.66 7.34 29.32 7 30 C7.66 30 8.32 30 9 30 C8.67 29.34 8.34 28.68 8 28 Z " fill="#63350E" transform="translate(199,91)"/>
<path d="M0 0 C-0.78375 0.2475 -1.5675 0.495 -2.375 0.75 C-5.50753008 2.24168099 -5.52123745 3.00483368 -7 6 C-8.76953125 8.03515625 -8.76953125 8.03515625 -10.8125 10.0625 C-11.47894531 10.73410156 -12.14539063 11.40570313 -12.83203125 12.09765625 C-15.08772618 14.07697774 -17.4144533 15.48978444 -20 17 C-19.08767105 17.01030746 -18.1753421 17.02061493 -17.23536682 17.03123474 C-8.65609996 17.12903261 -0.07690493 17.23152128 8.50224209 17.33933926 C12.913334 17.39460832 17.32443249 17.44803454 21.7355957 17.49731445 C25.98906987 17.54489945 30.24246089 17.59723986 34.49583626 17.65294075 C36.12219243 17.67339098 37.74857142 17.69209956 39.37496758 17.70907402 C41.64516363 17.73305927 43.91520113 17.76312135 46.18530273 17.79467773 C48.12722755 17.81799416 48.12722755 17.81799416 50.10838318 17.84178162 C53 18 53 18 54 19 C54.04080783 20.99958364 54.04254356 23.00045254 54 25 C52.02 25.66 50.04 26.32 48 27 C48.2475 28.051875 48.495 29.10375 48.75 30.1875 C49 34 49 34 47.5625 36.9375 C44.49118321 39.40953546 42.77236133 39.74757452 38.91015625 39.48046875 C37 39 37 39 34.4375 36.9375 C33 34 33 34 34 27 C15.52 27 -2.96 27 -22 27 C-21.67 29.31 -21.34 31.62 -21 34 C-22.4375 36.9375 -22.4375 36.9375 -25 39 C-27.82712877 39.71111828 -30.17287123 39.71111828 -33 39 C-35.5625 36.9375 -35.5625 36.9375 -37 34 C-36.85314612 29.7412375 -36.37178287 27.5576743 -34 24 C-34.680625 23.2575 -35.36125 22.515 -36.0625 21.75 C-38 19 -38 19 -37.75 16.6875 C-37.5025 16.130625 -37.255 15.57375 -37 15 C-36.34 15 -35.68 15 -35 15 C-34.67 15.66 -34.34 16.32 -34 17 C-31.80659801 16.1345565 -31.80659801 16.1345565 -30.7421875 13.796875 C-26.6733778 7.26488454 -19.87336853 1.03068176 -12.359375 -0.96875 C-7.90409311 -1.32836917 -4.25772118 -1.41924039 0 0 Z M-31 28 C-31.66 28.66 -32.32 29.32 -33 30 C-32.6814823 32.10820797 -32.6814823 32.10820797 -32 34 C-29.60280568 34.67958603 -29.60280568 34.67958603 -27 35 C-26.34 34.34 -25.68 33.68 -25 33 C-25.3185177 30.89179203 -25.3185177 30.89179203 -26 29 C-28.39719432 28.32041397 -28.39719432 28.32041397 -31 28 Z M39 28 C38.34 28.66 37.68 29.32 37 30 C37.32041397 32.60280568 37.32041397 32.60280568 38 35 C40.41645782 35.16687448 40.41645782 35.16687448 43 35 C43.66 34.34 44.32 33.68 45 33 C44.6814823 30.89179203 44.6814823 30.89179203 44 29 C41.60280568 28.32041397 41.60280568 28.32041397 39 28 Z " fill="#252324" transform="translate(185,143)"/>
<path d="M0 0 C1.32 0 2.64 0 4 0 C4 0.66 4 1.32 4 2 C5.16015625 2.09087891 5.16015625 2.09087891 6.34375 2.18359375 C12.25249543 2.65892599 18.12508141 3.20914557 24 4 C24 4.33 24 4.66 24 5 C22.02 5.33 20.04 5.66 18 6 C18.495 10.455 18.495 10.455 19 15 C20.65 15 22.3 15 24 15 C23.94779297 14.06027344 23.94779297 14.06027344 23.89453125 13.1015625 C23.86746094 12.28429687 23.84039062 11.46703125 23.8125 10.625 C23.76029297 9.40683594 23.76029297 9.40683594 23.70703125 8.1640625 C23.80371094 7.44992188 23.90039062 6.73578125 24 6 C28.04285347 3.30476436 31.42099892 3.62248656 36.1875 3.44140625 C39.24146864 2.96210284 40.15213134 2.40607899 42 0 C42.495 0.495 42.495 0.495 43 1 C42.80376953 11.03794348 41.32948681 21.06111802 40 31 C38.35 30.67 36.7 30.34 35 30 C33.99983813 32.00032373 33.50603992 33.83125748 33 36 C33 35.01 33 34.02 33 33 C31.02 33 29.04 33 27 33 C27 35.31 27 37.62 27 40 C28.65 40 30.3 40 32 40 C32.495 39.01 32.495 39.01 33 38 C32.67 39.32 32.34 40.64 32 42 C29.36 41.34 26.72 40.68 24 40 C24 37.69 24 35.38 24 33 C20.04 33 16.08 33 12 33 C12 35.64 12 38.28 12 41 C15.3 41 18.6 41 22 41 C22 41.33 22 41.66 22 42 C18.37 42 14.74 42 11 42 C11 40.68 11 39.36 11 38 C10.34 38 9.68 38 9 38 C9 36.35 9 34.7 9 33 C3.32870721 34.35580678 3.32870721 34.35580678 -1 38 C-1.66 38 -2.32 38 -3 38 C-3 39.65 -3 41.3 -3 43 C-3.99 43 -4.98 43 -6 43 C-6 39.37 -6 35.74 -6 32 C-10.29 32 -14.58 32 -19 32 C-19 27.71 -19 23.42 -19 19 C-18.67 19 -18.34 19 -18 19 C-18 22.63 -18 26.26 -18 30 C-14.04 30 -10.08 30 -6 30 C-6 26.04 -6 22.08 -6 18 C-10.29 18 -14.58 18 -19 18 C-19 17.34 -19 16.68 -19 16 C-14.71 16 -10.42 16 -6 16 C-6 11.71 -6 7.42 -6 3 C-9.63 3 -13.26 3 -17 3 C-17 2.67 -17 2.34 -17 2 C-11.39 2 -5.78 2 0 2 C0 1.34 0 0.68 0 0 Z M27 5 C27 8.3 27 11.6 27 15 C29.64 15 32.28 15 35 15 C36.14352916 12.71294169 36.10334439 11.40735238 36.0625 8.875 C36.041875 7.59625 36.02125 6.3175 36 5 C33.03 5 30.06 5 27 5 Z M13.5 20.5625 C11.49521219 23.82028019 11.71137141 26.24782833 12 30 C15.96 30 19.92 30 24 30 C24 26.37 24 22.74 24 19 C18.44714498 18.50344899 18.44714498 18.50344899 13.5 20.5625 Z M27 19 C27 22.63 27 26.26 27 30 C28.99954746 30.04254356 31.00041636 30.04080783 33 30 C34.66342837 28.33657163 34.36048097 26.2174291 34.5625 23.9375 C34.64628906 23.01839844 34.73007813 22.09929687 34.81640625 21.15234375 C34.87699219 20.44207031 34.93757813 19.73179688 35 19 C32.36 19 29.72 19 27 19 Z M8 28 C7.67 28.66 7.34 29.32 7 30 C7.66 30 8.32 30 9 30 C8.67 29.34 8.34 28.68 8 28 Z " fill="#554D4A" transform="translate(199,91)"/>
<path d="M0 0 C6.03227325 5.1905607 8.4060363 8.64105953 9.53515625 16.56640625 C9.89744815 23.09694996 7.84001342 28.23720582 3.6875 33.3125 C-2.8633748 38.25907893 -8.27090813 39.10347625 -16.3125 38.3125 C-21.6545836 36.68511029 -25.29373314 34.07286312 -28.3125 29.3125 C-31.16904813 23.2268105 -31.49280612 16.4033337 -29.625 9.9296875 C-26.91528409 3.99089345 -23.11106596 0.49650867 -17.0625 -2.0625 C-10.90647696 -3.08850384 -5.60907628 -2.85745395 0 0 Z M-17.1875 9.3125 C-19.81349734 13.01979036 -20.48599137 15.81085542 -20.3125 20.3125 C-19.39897264 23.73822758 -18.2639734 26.2770011 -15.3125 28.3125 C-11.44356373 29.31555755 -9.21724039 29.6945015 -5.5 28.125 C-3.11773667 26.15112467 -2.18995447 25.26393775 -1.3125 22.3125 C-0.88681128 16.94882209 -0.84759739 13.67571069 -4.3125 9.3125 C-8.93579591 6.23030273 -12.5806877 6.10776101 -17.1875 9.3125 Z " fill="#3B3839" transform="translate(215.3125,200.6875)"/>
<path d="M0 0 C3.3 0 6.6 0 10 0 C10 4.95 10 9.9 10 15 C13.63 15 17.26 15 21 15 C21 10.05 21 5.1 21 0 C24.3 0 27.6 0 31 0 C31 12.87 31 25.74 31 39 C27.7 39 24.4 39 21 39 C21 34.05 21 29.1 21 24 C17.37 24 13.74 24 10 24 C10 28.95 10 33.9 10 39 C6.7 39 3.4 39 0 39 C0 26.13 0 13.26 0 0 Z " fill="#3D3A3B" transform="translate(151,199)"/>
<path d="M0 0 C3.125 1.5625 3.125 1.5625 5 3 C3.375 8.75 3.375 8.75 0 11 C-1.66967972 10.3409159 -3.33607955 9.67349161 -5 9 C-7.7336432 9.29519768 -7.7336432 9.29519768 -10 10 C-9.30537437 13.16391825 -9.30537437 13.16391825 -6.63671875 14.4296875 C-5.17685547 15.14511719 -5.17685547 15.14511719 -3.6875 15.875 C3.96488516 19.92977032 3.96488516 19.92977032 6 24 C6.68189291 27.97770866 6.37327352 31.06681619 4.875 34.8125 C1.76972706 38.43531843 -1.01487931 39.771055 -5.77734375 40.3203125 C-12.66183507 40.58075984 -17.19093927 39.72656726 -23 36 C-23.33 35.34 -23.66 34.68 -24 34 C-23.22265625 32.2734375 -23.22265625 32.2734375 -22.0625 30.375 C-21.0415625 28.704375 -21.0415625 28.704375 -20 27 C-19.154375 27.309375 -18.30875 27.61875 -17.4375 27.9375 C-13.34622319 29.20207647 -9.2957915 30 -5 30 C-5.09097286 28.08212691 -5.09097286 28.08212691 -6 26 C-8.43043286 24.34425596 -8.43043286 24.34425596 -11.375 23 C-15.24791568 21.11974542 -17.73008758 19.71171346 -20 16 C-21.44665631 11.77131233 -20.92010524 9.00717616 -19 5 C-13.18350588 -1.19872087 -7.95562894 -1.48217928 0 0 Z " fill="#433F40" transform="translate(142,199)"/>
<path d="M0 0 C7.59 0 15.18 0 23 0 C23 2.97 23 5.94 23 9 C18.71 9 14.42 9 10 9 C10 10.98 10 12.96 10 15 C10.85464844 14.98839844 11.70929688 14.97679687 12.58984375 14.96484375 C13.69457031 14.95582031 14.79929687 14.94679687 15.9375 14.9375 C17.03964844 14.92589844 18.14179687 14.91429687 19.27734375 14.90234375 C22 15 22 15 23 16 C23.14115161 18.67058851 23.04247107 21.32432238 23 24 C18.71 24 14.42 24 10 24 C10 26.31 10 28.62 10 31 C14.29 31 18.58 31 23 31 C23 33.64 23 36.28 23 39 C15.41 39 7.82 39 0 39 C0 26.13 0 13.26 0 0 Z " fill="#3D3A3B" transform="translate(80,199)"/>
<path d="M0 0 C20.14876033 0 20.14876033 0 25.8203125 4.41796875 C28.13191745 7.51796877 28.1156863 11.24019535 28 15 C26.6413449 18.66836877 25.09075933 21.55314886 22 24 C18.98509443 25.00496852 16.95818308 25.10335303 13.8125 25.0625 C12.224375 25.041875 10.63625 25.02125 9 25 C9 29.62 9 34.24 9 39 C6.03 39 3.06 39 0 39 C0 26.13 0 13.26 0 0 Z M9 8 C9 10.97 9 13.94 9 17 C11.91652174 17.16681109 11.91652174 17.16681109 15 17 C17.23845015 15.17084359 17.23845015 15.17084359 17.3125 12.5 C17.209375 11.675 17.10625 10.85 17 10 C13.77208445 7.8480563 12.71599191 7.79913557 9 8 Z " fill="#403D3E" transform="translate(228,199)"/>
<path d="M0 0 C1.32 0 2.64 0 4 0 C4 0.66 4 1.32 4 2 C7.96 2.33 11.92 2.66 16 3 C16 3.66 16 4.32 16 5 C14.68 5 13.36 5 12 5 C12 8.63 12 12.26 12 16 C13.65 16 15.3 16 17 16 C16.67 16.66 16.34 17.32 16 18 C14.35 18 12.7 18 11 18 C11 21.96 11 25.92 11 30 C14.96 30 18.92 30 23 30 C23.495 30.99 23.495 30.99 24 32 C19.71 32 15.42 32 11 32 C8.81081611 26.52704027 8.82860959 23.74157877 9 18 C5.04 18.33 1.08 18.66 -3 19 C-3.66 26.92 -4.32 34.84 -5 43 C-5.33 43 -5.66 43 -6 43 C-6 39.37 -6 35.74 -6 32 C-10.29 32 -14.58 32 -19 32 C-19 27.71 -19 23.42 -19 19 C-18.67 19 -18.34 19 -18 19 C-18 22.63 -18 26.26 -18 30 C-14.04 30 -10.08 30 -6 30 C-6 26.04 -6 22.08 -6 18 C-10.29 18 -14.58 18 -19 18 C-19 17.34 -19 16.68 -19 16 C-14.71 16 -10.42 16 -6 16 C-6 11.71 -6 7.42 -6 3 C-9.63 3 -13.26 3 -17 3 C-17 2.67 -17 2.34 -17 2 C-11.39 2 -5.78 2 0 2 C0 1.34 0 0.68 0 0 Z " fill="#492105" transform="translate(199,91)"/>
<path d="M0 0 C4.62 0 9.24 0 14 0 C14 4.29 14 8.58 14 13 C17.96 13 21.92 13 26 13 C26 17.62 26 22.24 26 27 C20.72 27 15.44 27 10 27 C8.32669004 23.00264842 6.65967025 19.00301148 5 15 C4.608125 14.06027344 4.21625 13.12054688 3.8125 12.15234375 C3.461875 11.29769531 3.11125 10.44304687 2.75 9.5625 C2.27820313 8.41974609 2.27820313 8.41974609 1.796875 7.25390625 C1 5 1 5 0 0 Z " fill="#502505" transform="translate(152,94)"/>
<path d="M0 0 C1.32 0 2.64 0 4 0 C4.20666946 6.34934512 4.33689212 12.02794237 2 18 C-1.10997029 19.55498515 -4.48006435 19.48325709 -7.90234375 19.75390625 C-9.09084679 19.85166603 -9.09084679 19.85166603 -10.30335999 19.95140076 C-11.98698539 20.08871922 -13.67078483 20.22391769 -15.35473633 20.35717773 C-17.89655837 20.55924526 -20.43751361 20.77032109 -22.97851562 20.98242188 C-31.33100876 21.6635847 -39.61147122 22.24418865 -48 22 C-48.33 21.34 -48.66 20.68 -49 20 C-48.34 20 -47.68 20 -47 20 C-46.67 19.34 -46.34 18.68 -46 18 C-45.34 18.66 -44.68 19.32 -44 20 C-42.01178687 20.39764263 -40.01055661 20.73775349 -38 21 C-38 20.01 -38 19.02 -38 18 C-38.66 18 -39.32 18 -40 18 C-39.67 16.68 -39.34 15.36 -39 14 C-36.00519083 13.1276588 -33.36424089 12.89170234 -30.25 12.9375 C-29.45078125 12.94652344 -28.6515625 12.95554688 -27.828125 12.96484375 C-27.22484375 12.97644531 -26.6215625 12.98804688 -26 13 C-26 11.68 -26 10.36 -26 9 C-25.34 9 -24.68 9 -24 9 C-24 10.32 -24 11.64 -24 13 C-22.24908981 12.91245449 -20.49920449 12.80426627 -18.75 12.6875 C-17.77546875 12.62949219 -16.8009375 12.57148438 -15.796875 12.51171875 C-12.74658389 11.95363476 -11.29288724 11.03630224 -9 9 C-9 9.99 -9 10.98 -9 12 C-7.02 12 -5.04 12 -3 12 C-2.95101562 11.30132812 -2.90203125 10.60265625 -2.8515625 9.8828125 C-2.77679688 8.97273437 -2.70203125 8.06265625 -2.625 7.125 C-2.55539063 6.22007813 -2.48578125 5.31515625 -2.4140625 4.3828125 C-2 2 -2 2 0 0 Z " fill="#343132" transform="translate(234,120)"/>
<path d="M0 0 C3.34925302 0.09485902 6.67509144 0.60318302 10 1 C11.81757812 1.16822266 11.81757812 1.16822266 13.671875 1.33984375 C14.91453125 1.47519531 16.1571875 1.61054687 17.4375 1.75 C19.19900391 1.92789063 19.19900391 1.92789063 20.99609375 2.109375 C24 3 24 3 25.67578125 5.01171875 C27.44448584 9.00304326 29.15569748 12.99801271 30.75 17.0625 C31.24306641 18.26616211 31.24306641 18.26616211 31.74609375 19.49414062 C32.05160156 20.27080078 32.35710937 21.04746094 32.671875 21.84765625 C32.9512793 22.54898682 33.23068359 23.25031738 33.51855469 23.97290039 C34.07887715 26.33210801 33.66281881 27.70407274 33 30 C33.33 30.33 33.66 30.66 34 31 C33.69972883 32.67293936 33.36442233 34.33985384 33 36 C33 36.66 33 37.32 33 38 C33 39.66666667 33 41.33333333 33 43 C30.41596477 40.41596477 29.69153583 37.95298711 28.3984375 34.53125 C28.1571109 33.89513794 27.9157843 33.25902588 27.66714478 32.6036377 C27.15863997 31.25968652 26.65279293 29.91472716 26.14941406 28.56884766 C25.37708336 26.50556569 24.59548131 24.44597928 23.8125 22.38671875 C20 12.28346208 20 12.28346208 20 10 C18.81921875 9.87882812 17.6384375 9.75765625 16.421875 9.6328125 C14.86453957 9.4639448 13.30725023 9.29465165 11.75 9.125 C10.58404297 9.00705078 10.58404297 9.00705078 9.39453125 8.88671875 C2.27568856 8.09573623 2.27568856 8.09573623 -1 6 C-1.042721 4.33388095 -1.04063832 2.66617115 -1 1 C-0.67 0.67 -0.34 0.34 0 0 Z " fill="#241E1E" transform="translate(114,59)"/>
<path d="M0 0 C0.66 0.33 1.32 0.66 2 1 C0.93901543 20.37692873 0.93901543 20.37692873 -1 25 C-3.07421875 26.265625 -3.07421875 26.265625 -5 27 C-6 26 -6 26 -6.09765625 24.15234375 C-6.06510417 22.1015625 -6.03255208 20.05078125 -6 18 C-8.97 18 -11.94 18 -15 18 C-15 22.29 -15 26.58 -15 31 C-15.66 30.67 -16.32 30.34 -17 30 C-17 26.37 -17 22.74 -17 19 C-19.64 19 -22.28 19 -25 19 C-25.66 20.32 -26.32 21.64 -27 23 C-27.66 23 -28.32 23 -29 23 C-29 25.31 -29 27.62 -29 30 C-29.33 30 -29.66 30 -30 30 C-30 26.04 -30 22.08 -30 18 C-28.35 17.67 -26.7 17.34 -25 17 C-26.32 16.67 -27.64 16.34 -29 16 C-29 12.37 -29 8.74 -29 5 C-25.87110801 4.217777 -23.8599909 3.88566682 -20.75 3.9375 C-18.89375 3.9684375 -18.89375 3.9684375 -17 4 C-17 4.33 -17 4.66 -17 5 C-18.98 5.33 -20.96 5.66 -23 6 C-22.67 8.97 -22.34 11.94 -22 15 C-20.35 15 -18.7 15 -17 15 C-17.03480469 14.37351562 -17.06960937 13.74703125 -17.10546875 13.1015625 C-17.13253906 12.28429687 -17.15960938 11.46703125 -17.1875 10.625 C-17.22230469 9.81289062 -17.25710937 9.00078125 -17.29296875 8.1640625 C-17.19628906 7.44992188 -17.09960938 6.73578125 -17 6 C-12.93712051 3.29141367 -9.5051687 3.62140634 -4.71484375 3.44140625 C-3.81894531 3.29574219 -2.92304688 3.15007812 -2 3 C-1.34 2.01 -0.68 1.02 0 0 Z M-14 5 C-14 8.3 -14 11.6 -14 15 C-11.36 15 -8.72 15 -6 15 C-4.85647084 12.71294169 -4.89665561 11.40735238 -4.9375 8.875 C-4.958125 7.59625 -4.97875 6.3175 -5 5 C-7.97 5 -10.94 5 -14 5 Z " fill="#221E1E" transform="translate(240,91)"/>
<path d="M0 0 C2.31 0 4.62 0 7 0 C6.34 1.32 5.68 2.64 5 4 C5.99 4.33 6.98 4.66 8 5 C7.67 8.96 7.34 12.92 7 17 C10.3 17 13.6 17 17 17 C16.34 17.33 15.68 17.66 15 18 C14.34786708 20.02463255 14.34786708 20.02463255 14 22 C12.02 22.33 10.04 22.66 8 23 C8 27.95 8 32.9 8 38 C5.36 38 2.72 38 0 38 C0 25.46 0 12.92 0 0 Z " fill="#232021" transform="translate(229,200)"/>
<path d="M0 0 C-0.78375 0.2475 -1.5675 0.495 -2.375 0.75 C-5.50441292 2.24019663 -5.52918445 3.00449288 -7 6 C-11.44570937 11.23265103 -17.01664746 17.47266111 -24.21484375 18.234375 C-26.14476338 18.2479421 -28.07476736 18.13510405 -30 18 C-30.7890625 15.78515625 -30.7890625 15.78515625 -31 13 C-29.0859375 10.68359375 -29.0859375 10.68359375 -26.375 8.4375 C-25.49585938 7.69371094 -24.61671875 6.94992188 -23.7109375 6.18359375 C-22.81632813 5.46300781 -21.92171875 4.74242187 -21 4 C-20.20078125 3.26523438 -19.4015625 2.53046875 -18.578125 1.7734375 C-15.38581691 -0.42248352 -13.21930145 -0.6224943 -9.375 -0.8125 C-7.68503906 -0.91498047 -7.68503906 -0.91498047 -5.9609375 -1.01953125 C-3 -1 -3 -1 0 0 Z " fill="#F88109" transform="translate(185,143)"/>
<path d="M0 0 C0.66 0 1.32 0 2 0 C2.61875 0.969375 3.2375 1.93875 3.875 2.9375 C5.65036352 6.10540099 5.65036352 6.10540099 8.25 6.875 C9.11625 6.936875 9.11625 6.936875 10 7 C10 7.99 10 8.98 10 10 C31.12 10 52.24 10 74 10 C72 12 72 12 69.59555054 12.24050903 C68.08331406 12.2338472 68.08331406 12.2338472 66.54052734 12.22705078 C65.39949554 12.22689972 64.25846375 12.22674866 63.08285522 12.22659302 C61.22813095 12.21110916 61.22813095 12.21110916 59.3359375 12.1953125 C58.07359283 12.1924826 56.81124817 12.18965271 55.51065063 12.18673706 C52.15353056 12.17742131 48.79668088 12.15944835 45.43963623 12.1373291 C42.01446878 12.1168755 38.58927341 12.1077364 35.1640625 12.09765625 C28.44263329 12.07556458 21.72133227 12.04206377 15 12 C15.29197266 13.64162109 15.29197266 13.64162109 15.58984375 15.31640625 C16 19 16 19 14.5625 21.9375 C11.49118321 24.40953546 9.77236133 24.74757452 5.91015625 24.48046875 C4 24 4 24 1.4375 21.9375 C-0.42730984 18.12680162 -0.05226753 16.0587462 1 12 C1.66 11.01 2.32 10.02 3 9 C2.319375 8.2575 1.63875 7.515 0.9375 6.75 C-1 4 -1 4 -0.75 1.6875 C-0.5025 1.130625 -0.255 0.57375 0 0 Z M6 13 C5.34 13.66 4.68 14.32 4 15 C4.3185177 17.10820797 4.3185177 17.10820797 5 19 C7.39719432 19.67958603 7.39719432 19.67958603 10 20 C10.66 19.34 11.32 18.68 12 18 C11.6814823 15.89179203 11.6814823 15.89179203 11 14 C8.60280568 13.32041397 8.60280568 13.32041397 6 13 Z " fill="#797778" transform="translate(148,158)"/>
<path d="M0 0 C0.845625 0.309375 1.69125 0.61875 2.5625 0.9375 C6.65377681 2.20207647 10.7042085 3 15 3 C15.680625 4.2065625 15.680625 4.2065625 16.375 5.4375 C17.73420995 8.15236193 17.73420995 8.15236193 20.1875 8.8125 C20.785625 8.874375 21.38375 8.93625 22 9 C21.67 8.01 21.34 7.02 21 6 C21.66 5.67 22.32 5.34 23 5 C23.66 5.66 24.32 6.32 25 7 C21.52721549 10.66050259 19.51918848 12.77234 14.36328125 13.23828125 C7.37070611 13.40839511 2.9238446 12.8002022 -3 9 C-3.33 8.34 -3.66 7.68 -4 7 C-3.22265625 5.2734375 -3.22265625 5.2734375 -2.0625 3.375 C-1.381875 2.26125 -0.70125 1.1475 0 0 Z " fill="#464344" transform="translate(122,226)"/>
<path d="M0 0 C0.33 0.66 0.66 1.32 1 2 C1.99 2.33 2.98 2.66 4 3 C4.33 6.3 4.66 9.6 5 13 C21.83 13 38.66 13 56 13 C56.33 11.02 56.66 9.04 57 7 C55.68 7 54.36 7 53 7 C53.66 5.68 54.32 4.36 55 3 C56.17262904 4.11878383 57.33795138 5.24523051 58.5 6.375 C59.1496875 7.00148438 59.799375 7.62796875 60.46875 8.2734375 C62 10 62 10 62 12 C62.66 12 63.32 12 64 12 C64.495 12.99 64.495 12.99 65 14 C67.8159849 14.46898963 67.8159849 14.46898963 71.0625 14.625 C72.71958984 14.73714844 72.71958984 14.73714844 74.41015625 14.8515625 C75.26480469 14.90054688 76.11945313 14.94953125 77 15 C77 15.33 77 15.66 77 16 C52.57206268 16.22335292 28.35114862 16.15816898 4 14 C3.32739649 12.23141309 2.66211605 10.46003984 2 8.6875 C1.62875 7.70136719 1.2575 6.71523437 0.875 5.69921875 C0 3 0 3 0 0 Z " fill="#B96F28" transform="translate(144,74)"/>
<path d="M0 0 C3.72773314 0.21301332 5.00099259 1.00090436 7.8125 3.5625 C10.71934251 7.29597585 10.39549091 10.41230545 10 15 C8.02 15.99 8.02 15.99 6 17 C6 17.66 6 18.32 6 19 C1.25 18.25 1.25 18.25 -1 16 C-1.59765625 14.046875 -1.59765625 14.046875 -2.0625 11.75 C-2.22621094 10.95207031 -2.38992187 10.15414062 -2.55859375 9.33203125 C-3.08310165 6.56095855 -3.57114875 3.78753312 -4 1 C-2.68 1.33 -1.36 1.66 0 2 C0 1.34 0 0.68 0 0 Z " fill="#3C393A" transform="translate(138,216)"/>
<path d="M0 0 C18 0 18 0 24 3 C23.01 3.495 23.01 3.495 22 4 C21.34444881 6.52733235 21.34444881 6.52733235 21 9 C18.69 9 16.38 9 14 9 C14 8.34 14 7.68 14 7 C13.236875 7.04125 12.47375 7.0825 11.6875 7.125 C9 7 9 7 6 5 C6.33 4.01 6.66 3.02 7 2 C4.03 1.505 4.03 1.505 1 1 C1 13.54 1 26.08 1 39 C0.67 39 0.34 39 0 39 C0 26.13 0 13.26 0 0 Z " fill="#383637" transform="translate(228,199)"/>
<path d="M0 0 C3.96 0 7.92 0 12 0 C12 4.29 12 8.58 12 13 C8.04 13 4.08 13 0 13 C0 8.71 0 4.42 0 0 Z " fill="#EE7D0D" transform="translate(166,94)"/>
<path d="M0 0 C3.96 0 7.92 0 12 0 C12 3.96 12 7.92 12 12 C8.04 12 4.08 12 0 12 C0 8.04 0 4.08 0 0 Z " fill="#EE7F12" transform="translate(196,95)"/>
<path d="M0 0 C3.96 0 7.92 0 12 0 C12 3.96 12 7.92 12 12 C8.04 12 4.08 12 0 12 C0 8.04 0 4.08 0 0 Z " fill="#FB7F04" transform="translate(181,95)"/>
<path d="M0 0 C3.96 0 7.92 0 12 0 C12.1953125 7.6171875 12.1953125 7.6171875 12 10 C10 12 10 12 7.6171875 12.1953125 C6.71226562 12.17210938 5.80734375 12.14890625 4.875 12.125 C2.461875 12.063125 2.461875 12.063125 0 12 C0 8.04 0 4.08 0 0 Z " fill="#EB8116" transform="translate(196,109)"/>
<path d="M0 0 C3.96 0 7.92 0 12 0 C12 3.96 12 7.92 12 12 C8.7 12 5.4 12 2 12 C-0.35333796 7.29332409 -0.17102038 5.1306114 0 0 Z " fill="#F3800C" transform="translate(166,124)"/>
<path d="M0 0 C3.86810541 1.93405271 4.72032974 7.43845357 6.1875 11.3125 C6.56841797 12.27607422 6.94933594 13.23964844 7.34179688 14.23242188 C7.69693359 15.16248047 8.05207031 16.09253906 8.41796875 17.05078125 C8.74563232 17.90325439 9.0732959 18.75572754 9.41088867 19.6340332 C10.05313452 22.21339688 9.76336533 23.50490375 9 26 C9.33 26.33 9.66 26.66 10 27 C9.69972883 28.67293936 9.36442233 30.33985384 9 32 C9 32.66 9 33.32 9 34 C9 35.66666667 9 37.33333333 9 39 C6.41596477 36.41596477 5.69153583 33.95298711 4.3984375 30.53125 C4.1571109 29.89513794 3.9157843 29.25902588 3.66714478 28.6036377 C3.15863997 27.25968652 2.65279293 25.91472716 2.14941406 24.56884766 C1.37708336 22.50556569 0.59548131 20.44597928 -0.1875 18.38671875 C-4 8.28346208 -4 8.28346208 -4 6 C-3.34 6 -2.68 6 -2 6 C-1.67 7.98 -1.34 9.96 -1 12 C-0.34 12 0.32 12 1 12 C1.66 15.3 2.32 18.6 3 22 C3.99 21.67 4.98 21.34 6 21 C5.33442559 18.18557108 4.51062783 15.48139418 3.5625 12.75 C2.13844361 8.54065686 1.0219367 4.32357833 0 0 Z " fill="#362011" transform="translate(138,63)"/>
<path d="M0 0 C0.33 0 0.66 0 1 0 C1.02705729 1.77074917 1.04642195 3.54161711 1.0625 5.3125 C1.07410156 6.29863281 1.08570313 7.28476563 1.09765625 8.30078125 C1 11 1 11 0 14 C0.66 14 1.32 14 2 14 C2 14.99 2 15.98 2 17 C-0.875 17.125 -0.875 17.125 -4 17 C-4.66 16.34 -5.32 15.68 -6 15 C-6.99 16.485 -6.99 16.485 -8 18 C-10.10448938 17.85890014 -12.2085877 17.71195825 -14.3125 17.5625 C-15.48425781 17.48128906 -16.65601563 17.40007812 -17.86328125 17.31640625 C-21 17 -21 17 -24 16 C-24 15.01 -24 14.02 -24 13 C-16.41 12.01 -8.82 11.02 -1 10 C-0.67 6.7 -0.34 3.4 0 0 Z " fill="#291D18" transform="translate(194,124)"/>
<path d="M0 0 C3.96 0 7.92 0 12 0 C12 3.63 12 7.26 12 11 C8.04 11 4.08 11 0 11 C0 7.37 0 3.74 0 0 Z " fill="#EE8215" transform="translate(181,124)"/>
<path d="M0 0 C3.96 0 7.92 0 12 0 C12 3.63 12 7.26 12 11 C8.04 11 4.08 11 0 11 C0 7.37 0 3.74 0 0 Z " fill="#F18213" transform="translate(181,110)"/>
<path d="M0 0 C3.96 0 7.92 0 12 0 C12 3.63 12 7.26 12 11 C8.04 11 4.08 11 0 11 C0 7.37 0 3.74 0 0 Z " fill="#F4810F" transform="translate(166,110)"/>
<path d="M0 0 C0.66 0.33 1.32 0.66 2 1 C1.5140207 8.3620694 1.02325928 15.69100518 0 23 C-0.33 23 -0.66 23 -1 23 C-1.33 20.36 -1.66 17.72 -2 15 C-2.99 15.33 -3.98 15.66 -5 16 C-6.72795352 16.06802967 -8.45835365 16.08495645 -10.1875 16.0625 C-11.53908203 16.04896484 -11.53908203 16.04896484 -12.91796875 16.03515625 C-13.60503906 16.02355469 -14.29210937 16.01195313 -15 16 C-15.02687279 14.18757948 -15.04633715 12.37504767 -15.0625 10.5625 C-15.07410156 9.55316406 -15.08570313 8.54382813 -15.09765625 7.50390625 C-15 5 -15 5 -14 4 C-10.93016348 3.75585984 -7.8614327 3.61589326 -4.78515625 3.4765625 C-3.86605469 3.31929688 -2.94695312 3.16203125 -2 3 C-1.34 2.01 -0.68 1.02 0 0 Z M-14 5 C-14 8.3 -14 11.6 -14 15 C-11.36 15 -8.72 15 -6 15 C-4.85647084 12.71294169 -4.89665561 11.40735238 -4.9375 8.875 C-4.958125 7.59625 -4.97875 6.3175 -5 5 C-7.97 5 -10.94 5 -14 5 Z " fill="#666364" transform="translate(240,91)"/>
<path d="M0 0 C3.63 0 7.26 0 11 0 C11 4.29 11 8.58 11 13 C8.69 13 6.38 13 4 13 C3.32942113 11.2097939 2.6636531 9.41778511 2 7.625 C1.62875 6.62726563 1.2575 5.62953125 0.875 4.6015625 C0 2 0 2 0 0 Z " fill="#EC7F13" transform="translate(152,94)"/>
<path d="M0 0 C-1.98 0.99 -1.98 0.99 -4 2 C-3.7525 3.051875 -3.505 4.10375 -3.25 5.1875 C-3 9 -3 9 -4.4375 11.9375 C-7.51139461 14.4116103 -9.22939857 14.74061763 -13.09375 14.48828125 C-15 14 -15 14 -17.5 11.8125 C-19.07462392 8.86008015 -19.37534065 7.28423071 -19 4 C-18.01 5.485 -18.01 5.485 -17 7 C-16.34 6.34 -15.68 5.68 -15 5 C-14.67 6.65 -14.34 8.3 -14 10 C-12.02 9.34 -10.04 8.68 -8 8 C-8.19471111 6.05000871 -8.19471111 6.05000871 -9 4 C-10.9837767 2.71563266 -10.9837767 2.71563266 -13 2 C-8.49646738 0.24252386 -4.82360189 -0.19294408 0 0 Z " fill="#464445" transform="translate(237,168)"/>
<path d="M0 0 C8.01471221 0.22699621 16.08386366 1.82512674 24 3 C24 3.33 24 3.66 24 4 C17.07 4 10.14 4 3 4 C2.67 4.66 2.34 5.32 2 6 C4.64 6 7.28 6 10 6 C10 6.66 10 7.32 10 8 C13.3 8 16.6 8 20 8 C20 8.66 20 9.32 20 10 C17.24874911 9.71766639 14.49938663 9.42452667 11.75 9.125 C10.58404297 9.00705078 10.58404297 9.00705078 9.39453125 8.88671875 C2.27568856 8.09573623 2.27568856 8.09573623 -1 6 C-1.042721 4.33388095 -1.04063832 2.66617115 -1 1 C-0.67 0.67 -0.34 0.34 0 0 Z " fill="#422109" transform="translate(114,59)"/>
<path d="M0 0 C2 3 2 3 1.8125 6 C0.59569378 10.49282297 0.59569378 10.49282297 -2 12 C-5.09288558 12.39274738 -7.04689172 12.63577985 -10 12 C-12.90799783 9.4555019 -13.90702057 8.04601863 -14.25 4.1875 C-14.1675 3.465625 -14.085 2.74375 -14 2 C-13.67 2.66 -13.34 3.32 -13 4 C-12.01 3.67 -11.02 3.34 -10 3 C-9.34 4.32 -8.68 5.64 -8 7 C-5.52733235 6.65555119 -5.52733235 6.65555119 -3 6 C-2.67 5.34 -2.34 4.68 -2 4 C-1.34 4 -0.68 4 0 4 C0 2.68 0 1.36 0 0 Z " fill="#5E5C5D" transform="translate(162,170)"/>
<path d="M0 0 C-0.33 0.66 -0.66 1.32 -1 2 C-2.65 2 -4.3 2 -6 2 C-6 5.96 -6 9.92 -6 14 C-2.04 14 1.92 14 6 14 C6.33 14.66 6.66 15.32 7 16 C2.71 16 -1.58 16 -6 16 C-8.18918389 10.52704027 -8.17139041 7.74157877 -8 2 C-11.96 2 -15.92 2 -20 2 C-20 1.34 -20 0.68 -20 0 C-13.12631267 -0.74464946 -6.83079148 -1.18225237 0 0 Z " fill="#311A0E" transform="translate(216,107)"/>
<path d="M0 0 C1.18613892 0.00785522 1.18613892 0.00785522 2.39624023 0.01586914 C3.67724609 0.02070312 3.67724609 0.02070312 4.98413086 0.02563477 C5.88196289 0.03401367 6.77979492 0.04239258 7.70483398 0.05102539 C8.6065332 0.05553711 9.50823242 0.06004883 10.43725586 0.06469727 C12.67234712 0.07652315 14.90730835 0.09300319 17.14233398 0.11352539 C16.26733398 3.98852539 16.26733398 3.98852539 15.14233398 5.11352539 C13.18817241 5.32352484 11.22833099 5.48185173 9.26733398 5.61352539 C5.95515211 5.8369979 3.29857203 6.06144604 0.14233398 7.11352539 C0.14233398 5.79352539 0.14233398 4.47352539 0.14233398 3.11352539 C-0.84766602 2.45352539 -1.83766602 1.79352539 -2.85766602 1.11352539 C-1.85766602 0.11352539 -1.85766602 0.11352539 0 0 Z " fill="#2D292B" transform="translate(222.857666015625,89.886474609375)"/>
<path d="M0 0 C1.85625 0.0309375 1.85625 0.0309375 3.75 0.0625 C3.75 0.3925 3.75 0.7225 3.75 1.0625 C1.77 1.3925 -0.21 1.7225 -2.25 2.0625 C-1.92 5.0325 -1.59 8.0025 -1.25 11.0625 C0.4 11.0625 2.05 11.0625 3.75 11.0625 C3.75 11.3925 3.75 11.7225 3.75 12.0625 C-0.21 12.0625 -4.17 12.0625 -8.25 12.0625 C-8.25 8.4325 -8.25 4.8025 -8.25 1.0625 C-5.12110801 0.280277 -3.1099909 -0.05183318 0 0 Z " fill="#D79D63" transform="translate(219.25,94.9375)"/>
<path d="M0 0 C2.31 0 4.62 0 7 0 C7 0.33 7 0.66 7 1 C5.02 1 3.04 1 1 1 C1.28875 1.69867188 1.5775 2.39734375 1.875 3.1171875 C2.431875 4.48230469 2.431875 4.48230469 3 5.875 C3.556875 7.23238281 3.556875 7.23238281 4.125 8.6171875 C5 11 5 11 5 13 C4.34 13 3.68 13 3 13 C2.67 16.63 2.34 20.26 2 24 C-0.23495428 21.76504572 -1.0024791 19.97585464 -2.1875 17.0625 C-2.55230469 16.18722656 -2.91710937 15.31195313 -3.29296875 14.41015625 C-4 12 -4 12 -3 9 C-1.68 9 -0.36 9 1 9 C0.67 6.03 0.34 3.06 0 0 Z " fill="#351F0D" transform="translate(151,93)"/>
<path d="M0 0 C1.3125 2.0625 1.3125 2.0625 1.3125 3.0625 C-6.23887932 3.36321865 -13.27606436 2.48875566 -20.6875 1.0625 C-20.6875 0.4025 -20.6875 -0.2575 -20.6875 -0.9375 C-5.1354586 -3.70230736 -5.1354586 -3.70230736 0 0 Z " fill="#251D1F" transform="translate(223.6875,91.9375)"/>
<path d="M0 0 C0 3.63 0 7.26 0 11 C-1.98 11.99 -1.98 11.99 -4 13 C-5 12 -5 12 -5.09765625 10.15234375 C-5.06510417 8.1015625 -5.03255208 6.05078125 -5 4 C-6.98 4 -8.96 4 -11 4 C-10.67 3.34 -10.34 2.68 -10 2 C-7.96875 1.3671875 -7.96875 1.3671875 -5.5 0.875 C-4.6853125 0.70742187 -3.870625 0.53984375 -3.03125 0.3671875 C-1 0 -1 0 0 0 Z " fill="#231F20" transform="translate(239,105)"/>
<path d="M0 0 C-0.78375 0.2475 -1.5675 0.495 -2.375 0.75 C-5.49977066 2.23798603 -5.53246459 3.01077658 -7 6 C-8.69140625 7.921875 -8.69140625 7.921875 -10.5625 9.75 C-11.49255859 10.67039063 -11.49255859 10.67039063 -12.44140625 11.609375 C-14 13 -14 13 -15 13 C-15 11.35 -15 9.7 -15 8 C-14.34 7.67 -13.68 7.34 -13 7 C-13 5.35 -13 3.7 -13 2 C-11.35 2.33 -9.7 2.66 -8 3 C-7.67 2.01 -7.34 1.02 -7 0 C-4.05610218 -1.17755913 -3.10046087 -1.03348696 0 0 Z " fill="#F88C1C" transform="translate(185,143)"/>
<path d="M0 0 C0.33 0 0.66 0 1 0 C1 4.29 1 8.58 1 13 C4.96 13 8.92 13 13 13 C13 13.33 13 13.66 13 14 C11.906875 14.268125 10.81375 14.53625 9.6875 14.8125 C6.26833673 15.91358648 5.22408019 16.42474926 3 19 C2.34 19 1.68 19 1 19 C1 20.65 1 22.3 1 24 C0.67 24 0.34 24 0 24 C-0.76299944 15.85351368 -1.21521251 8.11388044 0 0 Z " fill="#64462E" transform="translate(195,110)"/>
<path d="M0 0 C0.33 0 0.66 0 1 0 C1 3.3 1 6.6 1 10 C3.97 10 6.94 10 10 10 C10 7.03 10 4.06 10 1 C8.35 1 6.7 1 5 1 C5 0.67 5 0.34 5 0 C7.31 0 9.62 0 12 0 C12 3.96 12 7.92 12 12 C8.04 12 4.08 12 0 12 C0 8.04 0 4.08 0 0 Z " fill="#DC7E27" transform="translate(181,95)"/>
<path d="M0 0 C0.33 0 0.66 0 1 0 C1.33 1.65 1.66 3.3 2 5 C3.32 4.67 4.64 4.34 6 4 C6 5.98 6 7.96 6 10 C5.21625 9.814375 4.4325 9.62875 3.625 9.4375 C1.02910225 8.74037734 1.02910225 8.74037734 -1 10 C-0.67 6.7 -0.34 3.4 0 0 Z M0 11 C-0.33 12.32 -0.66 13.64 -1 15 C-1 14.01 -1 13.02 -1 12 C-2.98 12 -4.96 12 -7 12 C-7 14.31 -7 16.62 -7 19 C-5.35 19 -3.7 19 -2 19 C-1.67 18.34 -1.34 17.68 -1 17 C-1.33 18.32 -1.66 19.64 -2 21 C-4.97 20.505 -4.97 20.505 -8 20 C-8 17.03 -8 14.06 -8 11 C-4.71303767 10.20046862 -3.28976808 9.90341064 0 11 Z " fill="#6F6D6E" transform="translate(233,112)"/>
<path d="M0 0 C5.28 0 10.56 0 16 0 C16 0.66 16 1.32 16 2 C12.04 2 8.08 2 4 2 C4.33 5.63 4.66 9.26 5 13 C4.34 13 3.68 13 3 13 C2.49858258 11.02119196 1.99890291 9.0419435 1.5 7.0625 C1.2215625 5.96035156 0.943125 4.85820313 0.65625 3.72265625 C0 1 0 1 0 0 Z " fill="#401D08" transform="translate(162,121)"/>
<path d="M0 0 C6.27 0 12.54 0 19 0 C19 0.66 19 1.32 19 2 C17.68 2 16.36 2 15 2 C15 5.63 15 9.26 15 13 C14.01 12.67 13.02 12.34 12 12 C12 8.37 12 4.74 12 1 C8.04 1 4.08 1 0 1 C0 0.67 0 0.34 0 0 Z " fill="#562B08" transform="translate(196,94)"/>
<path d="M0 0 C0.99 0.33 1.98 0.66 3 1 C3.94921875 2.92578125 3.94921875 2.92578125 4.6875 5.3125 C4.93886719 6.09238281 5.19023437 6.87226562 5.44921875 7.67578125 C6 10 6 10 6 14 C5.34 14 4.68 14 4 14 C3.67 15.32 3.34 16.64 3 18 C1.68 14.37 0.36 10.74 -1 7 C-0.34 6.67 0.32 6.34 1 6 C1.65213292 3.97536745 1.65213292 3.97536745 2 2 C1.34 2 0.68 2 0 2 C0 1.34 0 0.68 0 0 Z " fill="#221E20" transform="translate(146,88)"/>
<path d="M0 0 C0.66 0.33 1.32 0.66 2 1 C1.34 2.32 0.68 3.64 0 5 C-0.66 5 -1.32 5 -2 5 C-2 18.86 -2 32.72 -2 47 C-2.33 47 -2.66 47 -3 47 C-3.07408447 40.78868226 -3.12857114 34.57762095 -3.16479492 28.3659668 C-3.1798936 26.25231446 -3.20037426 24.13869352 -3.22631836 22.02514648 C-3.26265397 18.98934185 -3.27971544 15.95395094 -3.29296875 12.91796875 C-3.30845261 11.97100632 -3.32393646 11.02404388 -3.33988953 10.04838562 C-3.34011612 9.16769913 -3.34034271 8.28701263 -3.34057617 7.37963867 C-3.34723801 6.60464523 -3.35389984 5.82965179 -3.36076355 5.03117371 C-2.91092828 2.4985077 -1.94700642 1.6146196 0 0 Z " fill="#F68A21" transform="translate(93,33)"/>
<path d="M0 0 C3.6875 0.875 3.6875 0.875 7 2 C6.6875 3.9375 6.6875 3.9375 6 6 C2.52674819 7.1577506 -0.36067448 7.06866652 -4 7 C-3.6875 4.625 -3.6875 4.625 -3 2 C-2.01 1.34 -1.02 0.68 0 0 Z " fill="#FC7F04" transform="translate(160,152)"/>
<path d="M0 0 C0.33 0.66 0.66 1.32 1 2 C4.3 2 7.6 2 11 2 C11 2.33 11 2.66 11 3 C8.36 3 5.72 3 3 3 C3 3.99 3 4.98 3 6 C6.96 6.33 10.92 6.66 15 7 C15 7.66 15 8.32 15 9 C10.38 9 5.76 9 1 9 C0.67 6.03 0.34 3.06 0 0 Z " fill="#41230B" transform="translate(167,134)"/>
<path d="M0 0 C1.15224028 0.92961422 2.29659176 1.8690125 3.4375 2.8125 C4.07558594 3.33457031 4.71367187 3.85664062 5.37109375 4.39453125 C7 6 7 6 8 9 C8.66 9 9.32 9 10 9 C10.33 9.99 10.66 10.98 11 12 C8.69 12 6.38 12 4 12 C2.57055055 9.64561267 1.91338739 8.51967567 2.375 5.75 C2.58125 5.1725 2.7875 4.595 3 4 C1.68 4 0.36 4 -1 4 C-0.67 2.68 -0.34 1.36 0 0 Z " fill="#F29E4B" transform="translate(198,77)"/>
<path d="M0 0 C0.66 0.66 1.32 1.32 2 2 C1.85960574 4.95438365 1.11073024 5.8970146 -1.06640625 7.921875 C-1.89011719 8.52515625 -2.71382812 9.1284375 -3.5625 9.75 C-4.80193359 10.67039063 -4.80193359 10.67039063 -6.06640625 11.609375 C-6.70449219 12.06828125 -7.34257812 12.5271875 -8 13 C-8 12.01 -8 11.02 -8 10 C-7.34 10 -6.68 10 -6 10 C-5.67 7.36 -5.34 4.72 -5 2 C-4.01 2 -3.02 2 -2 2 C-1.34 1.34 -0.68 0.68 0 0 Z " fill="#F0800B" transform="translate(159,136)"/>
<path d="M0 0 C0.66 0.33 1.32 0.66 2 1 C2 2.98 2 4.96 2 7 C0.02 7.99 0.02 7.99 -2 9 C-2 9.66 -2 10.32 -2 11 C-2.99 11 -3.98 11 -5 11 C-5 9.02 -5 7.04 -5 5 C-7.97 5 -10.94 5 -14 5 C-14 4.67 -14 4.34 -14 4 C-13.15695313 3.96261719 -12.31390625 3.92523438 -11.4453125 3.88671875 C-9.80175781 3.78810547 -9.80175781 3.78810547 -8.125 3.6875 C-7.03445312 3.62949219 -5.94390625 3.57148437 -4.8203125 3.51171875 C-3.88960937 3.34285156 -2.95890625 3.17398438 -2 3 C-1.34 2.01 -0.68 1.02 0 0 Z " fill="#524F50" transform="translate(240,91)"/>
<path d="M0 0 C7.59 0 15.18 0 23 0 C23 0.66 23 1.32 23 2 C12.605 2.495 12.605 2.495 2 3 C2 2.34 2 1.68 2 1 C1.34 0.67 0.68 0.34 0 0 Z " fill="#221F21" transform="translate(176,91)"/>
<path d="M0 0 C0.66 0 1.32 0 2 0 C2.33 2.97 2.66 5.94 3 9 C1.68 9 0.36 9 -1 9 C-1.33 10.32 -1.66 11.64 -2 13 C-3.32 12.34 -4.64 11.68 -6 11 C-4.86280581 7.58841744 -3.95657056 6.88145399 -1 5 C-0.34 5 0.32 5 1 5 C0.67 3.35 0.34 1.7 0 0 Z " fill="#241E1E" transform="translate(162,137)"/>
<path d="M0 0 C0.99 0 1.98 0 3 0 C3 0.99 3 1.98 3 3 C3.66 3.66 4.32 4.32 5 5 C5 5.66 5 6.32 5 7 C1.85069107 8.04976964 -0.38814456 8.10131595 -3.6875 8.0625 C-4.68136719 8.05347656 -5.67523438 8.04445312 -6.69921875 8.03515625 C-7.83810547 8.01775391 -7.83810547 8.01775391 -9 8 C-9.33 7.34 -9.66 6.68 -10 6 C-9.34 6 -8.68 6 -8 6 C-7.67 5.34 -7.34 4.68 -7 4 C-6.34 4.66 -5.68 5.32 -5 6 C-3.01178687 6.39764263 -1.01055661 6.73775349 1 7 C1 6.01 1 5.02 1 4 C0.34 4 -0.32 4 -1 4 C-0.67 2.68 -0.34 1.36 0 0 Z " fill="#211E25" transform="translate(195,134)"/>
<path d="M0 0 C3.88281017 1.94140508 4.72674218 7.54469512 6.1875 11.4375 C6.56841797 12.41783203 6.94933594 13.39816406 7.34179688 14.40820312 C7.69693359 15.34470703 8.05207031 16.28121094 8.41796875 17.24609375 C8.74563232 18.10904053 9.0732959 18.9719873 9.41088867 19.86108398 C10 22 10 22 9 24 C5.35387165 18.76738833 3.23452616 14.23255926 2 8 C1.6322653 6.49820235 1.25744254 4.99811972 0.875 3.5 C0.58625 2.345 0.2975 1.19 0 0 Z " fill="#442407" transform="translate(138,63)"/>
<path d="M0 0 C0.33 0.66 0.66 1.32 1 2 C0.67 2.99 0.34 3.98 0 5 C2.3431213 4.74438677 4.67843403 4.40729228 7 4 C7.33 3.34 7.66 2.68 8 2 C9.98 2 11.96 2 14 2 C8.37743903 6.58682606 6.11167844 7.11470449 -1 7 C-1.625 4.625 -1.625 4.625 -2 2 C-1.34 1.34 -0.68 0.68 0 0 Z " fill="#E29952" transform="translate(156,154)"/>
<path d="M0 0 C2.31 0 4.62 0 7 0 C7 0.33 7 0.66 7 1 C5.02 1 3.04 1 1 1 C1.28875 1.69867188 1.5775 2.39734375 1.875 3.1171875 C2.431875 4.48230469 2.431875 4.48230469 3 5.875 C3.556875 7.23238281 3.556875 7.23238281 4.125 8.6171875 C5 11 5 11 5 13 C4.34 13 3.68 13 3 13 C2.67 13.99 2.34 14.98 2 16 C0.00383446 14.00383446 0.59016573 10.18298037 0.4375 7.4375 C0.39431641 6.72658203 0.35113281 6.01566406 0.30664062 5.28320312 C0.20028223 3.52238088 0.09961154 1.7612168 0 0 Z " fill="#412311" transform="translate(151,93)"/>
<path d="M0 0 C1.09054688 0.02320313 2.18109375 0.04640625 3.3046875 0.0703125 C4.40039062 0.08835938 5.49609375 0.10640625 6.625 0.125 C7.46804687 0.14820313 8.31109375 0.17140625 9.1796875 0.1953125 C9.5096875 1.1853125 9.8396875 2.1753125 10.1796875 3.1953125 C11.1696875 3.5253125 12.1596875 3.8553125 13.1796875 4.1953125 C12.1896875 5.6803125 12.1896875 5.6803125 11.1796875 7.1953125 C10.4784375 6.3703125 9.7771875 5.5453125 9.0546875 4.6953125 C6.42719115 1.9876454 6.42719115 1.9876454 3.2421875 1.6328125 C-0.52686796 2.32508799 -2.79677007 3.89166113 -5.8203125 6.1953125 C-5.02802585 2.23387925 -4.38920598 0.30396163 0 0 Z " fill="#F0A454" transform="translate(107.8203125,43.8046875)"/>
<path d="M0 0 C4.29 0 8.58 0 13 0 C13 0.33 13 0.66 13 1 C10.36 1 7.72 1 5 1 C4.34 2.32 3.68 3.64 3 5 C2.34 5 1.68 5 1 5 C1 7.31 1 9.62 1 12 C0.67 12 0.34 12 0 12 C0 8.04 0 4.08 0 0 Z " fill="#AB8964" transform="translate(210,109)"/>
<path d="M0 0 C1.21816406 0.03480469 1.21816406 0.03480469 2.4609375 0.0703125 C3.68683594 0.09738281 3.68683594 0.09738281 4.9375 0.125 C5.87722656 0.15980469 5.87722656 0.15980469 6.8359375 0.1953125 C6.5059375 1.1853125 6.1759375 2.1753125 5.8359375 3.1953125 C4.1859375 2.8653125 2.5359375 2.5353125 0.8359375 2.1953125 C0.8359375 3.8453125 0.8359375 5.4953125 0.8359375 7.1953125 C-2.1640625 6.1953125 -2.1640625 6.1953125 -3.3515625 4.1328125 C-3.75375 3.17375 -3.75375 3.17375 -4.1640625 2.1953125 C-2.1640625 0.1953125 -2.1640625 0.1953125 0 0 Z " fill="#EA7D17" transform="translate(171.1640625,142.8046875)"/>
<path d="M0 0 C2.475 0.495 2.475 0.495 5 1 C5.33 1.99 5.66 2.98 6 4 C6.99 4.33 7.98 4.66 9 5 C9.33 6.98 9.66 8.96 10 11 C8.8944811 10.06409496 7.79064547 9.12620142 6.6875 8.1875 C6.07261719 7.66542969 5.45773438 7.14335938 4.82421875 6.60546875 C1.48047722 3.6626898 1.48047722 3.6626898 0 2 C0 1.34 0 0.68 0 0 Z " fill="#F3A14B" transform="translate(90,96)"/>
<path d="M0 0 C0.99 1.485 0.99 1.485 2 3 C2.66 2.34 3.32 1.68 4 1 C4.33 2.65 4.66 4.3 5 6 C6.65 6 8.3 6 10 6 C10 6.33 10 6.66 10 7 C8.35 7 6.7 7 5 7 C5.33 7.99 5.66 8.98 6 10 C2.83884224 8.63016497 2.0072908 8.0109362 0 5 C-0.125 2.3125 -0.125 2.3125 0 0 Z " fill="#706F70" transform="translate(218,172)"/>
<path d="M0 0 C0.99 0.33 1.98 0.66 3 1 C3 2.65 3 4.3 3 6 C-0.33333333 6 -3.66666667 6 -7 6 C-5.90716423 4.96704564 -4.80029421 3.94892165 -3.6875 2.9375 C-3.07261719 2.36902344 -2.45773438 1.80054688 -1.82421875 1.21484375 C-0.92123047 0.61349609 -0.92123047 0.61349609 0 0 Z " fill="#ED7D0E" transform="translate(164,147)"/>
<path d="M0 0 C1.65 0 3.3 0 5 0 C5 3.63 5 7.26 5 11 C2.09591658 7.12788877 1.14920536 4.59682146 0 0 Z " fill="#DE8229" transform="translate(158,110)"/>
<path d="M0 0 C5.01113235 1.4317521 6.94469549 3.98445693 10 8 C8.35 8 6.7 8 5 8 C5 7.34 5 6.68 5 6 C4.01 6 3.02 6 2 6 C1.34 4.02 0.68 2.04 0 0 Z " fill="#F4A559" transform="translate(152,33)"/>
<path d="M0 0 C1.32 0.33 2.64 0.66 4 1 C4 3.31 4 5.62 4 8 C2.68 8 1.36 8 0 8 C0 5.36 0 2.72 0 0 Z " fill="#F98008" transform="translate(212,97)"/>
<path d="M0 0 C-1.98 0.99 -1.98 0.99 -4 2 C-3.67 4.31 -3.34 6.62 -3 9 C-5 6 -5 6 -6 4 C-6.99 4 -7.98 4 -9 4 C-11.1875 3 -11.1875 3 -13 2 C-8.49646738 0.24252386 -4.82360189 -0.19294408 0 0 Z " fill="#807F7F" transform="translate(237,168)"/>
<path d="M0 0 C0 0.99 0 1.98 0 3 C-3.47325181 4.1577506 -6.36067448 4.06866652 -10 4 C-10 3.01 -10 2.02 -10 1 C-2.25 0 -2.25 0 0 0 Z " fill="#211E20" transform="translate(180,136)"/>
<path d="M0 0 C2 1 2 1 2.8515625 3.28515625 C3.10679687 4.20167969 3.36203125 5.11820312 3.625 6.0625 C3.88539063 6.98160156 4.14578125 7.90070313 4.4140625 8.84765625 C4.60742188 9.55792969 4.80078125 10.26820312 5 11 C2.5625 10.1875 2.5625 10.1875 0 9 C-1.15941038 5.52176885 -0.70820884 3.54104422 0 0 Z " fill="#3E220E" transform="translate(157,110)"/>
<path d="M0 0 C0.99 0.33 1.98 0.66 3 1 C3 1.66 3 2.32 3 3 C3.66 3 4.32 3 5 3 C4.625 4.9375 4.625 4.9375 4 7 C3.01 7.495 3.01 7.495 2 8 C2 7.01 2 6.02 2 5 C1.01 5.33 0.02 5.66 -1 6 C-0.67 4.02 -0.34 2.04 0 0 Z " fill="#252121" transform="translate(148,153)"/>
<path d="M0 0 C-2.625 3.875 -2.625 3.875 -6 5 C-6.99 4.67 -7.98 4.34 -9 4 C-8.67 3.01 -8.34 2.02 -8 1 C-5.29120665 -0.35439668 -2.99066732 -0.06501451 0 0 Z " fill="#3C393A" transform="translate(135,199)"/>
<path d="M0 0 C2 3 2 3 1.75 6.125 C1.5025 7.07375 1.255 8.0225 1 9 C0.01 9.495 0.01 9.495 -1 10 C-1 9.34 -1 8.68 -1 8 C-1.99 7.67 -2.98 7.34 -4 7 C-3.34 6.01 -2.68 5.02 -2 4 C-1.34 4 -0.68 4 0 4 C0 2.68 0 1.36 0 0 Z " fill="#696869" transform="translate(162,170)"/>
<path d="M0 0 C1.65 0.33 3.3 0.66 5 1 C4.67 2.32 4.34 3.64 4 5 C2.35 4.67 0.7 4.34 -1 4 C-0.67 2.68 -0.34 1.36 0 0 Z " fill="#6D6B6C" transform="translate(154,172)"/>
<path d="M0 0 C2 2 2 2 2 3.875 C0.49610888 7.07076864 -2.03242817 8.23208487 -5 10 C-5 9.01 -5 8.02 -5 7 C-4.01 7 -3.02 7 -2 7 C-2.33 6.01 -2.66 5.02 -3 4 C-1.5625 1.8125 -1.5625 1.8125 0 0 Z " fill="#E47E19" transform="translate(159,136)"/>
<path d="M0 0 C0.66 0 1.32 0 2 0 C3.61949011 2.57213134 4.04408751 3.67669159 3.625 6.75 C3.41875 7.4925 3.2125 8.235 3 9 C2.01 9 1.02 9 0 9 C-1.125 3.375 -1.125 3.375 0 0 Z " fill="#222023" transform="translate(154,106)"/>
<path d="M0 0 C0.33 0.66 0.66 1.32 1 2 C1.99 2.33 2.98 2.66 4 3 C4.33 6.63 4.66 10.26 5 14 C3.37723842 11.56585763 2.38255208 9.68680554 1.375 7 C0.98441406 5.9790625 0.98441406 5.9790625 0.5859375 4.9375 C0 3 0 3 0 0 Z " fill="#DB7C1A" transform="translate(144,74)"/>
<path d="M0 0 C1.32 0 2.64 0 4 0 C4.33 1.32 4.66 2.64 5 4 C3.35 4.33 1.7 4.66 0 5 C-0.5625 3.0625 -0.5625 3.0625 -1 1 C-0.67 0.67 -0.34 0.34 0 0 Z " fill="#676566" transform="translate(224,172)"/>
<path d="M0 0 C3.96 0 7.92 0 12 0 C8.77208445 2.1519437 7.71599191 2.20086443 4 2 C4 2.66 4 3.32 4 4 C3.01 3.67 2.02 3.34 1 3 C0.67 2.01 0.34 1.02 0 0 Z " fill="#41260F" transform="translate(148,88)"/>
<path d="M0 0 C2.64 0.33 5.28 0.66 8 1 C6 4 6 4 3.875 4.6875 C3.25625 4.790625 2.6375 4.89375 2 5 C1.34 3.35 0.68 1.7 0 0 Z " fill="#241D1A" transform="translate(152,160)"/>
<path d="M0 0 C1.98 0 3.96 0 6 0 C5.3125 1.9375 5.3125 1.9375 4 4 C1.375 4.75 1.375 4.75 -1 5 C-0.67 3.35 -0.34 1.7 0 0 Z " fill="#3D3431" transform="translate(114,59)"/>
<path d="M0 0 C2.475 0.99 2.475 0.99 5 2 C4.67 3.65 4.34 5.3 4 7 C3.01 6.67 2.02 6.34 1 6 C0.67 4.02 0.34 2.04 0 0 Z " fill="#211D1E" transform="translate(134,217)"/>
<path d="M0 0 C1.875 0.25 1.875 0.25 4 1 C6.35535899 4.17973464 6.17494335 7.15124621 6 11 C5.67 11 5.34 11 5 11 C4.67 8.36 4.34 5.72 4 3 C2.68 3 1.36 3 0 3 C0 2.01 0 1.02 0 0 Z " fill="#797678" transform="translate(250,203)"/>
<path d="M0 0 C-1.175625 0.37125 -1.175625 0.37125 -2.375 0.75 C-5.32317108 2.15389099 -5.9024777 3.00675737 -7 6 C-7.33 6 -7.66 6 -8 6 C-8 4.35 -8 2.7 -8 1 C-3.375 -1.125 -3.375 -1.125 0 0 Z " fill="#E9B277" transform="translate(185,143)"/>
<path d="M0 0 C0.33 0.99 0.66 1.98 1 3 C2.65 3.33 4.3 3.66 6 4 C3 6 3 6 -0.1875 5.625 C-1.115625 5.41875 -2.04375 5.2125 -3 5 C-3 3 -3 3 -1.5 1.375 C-1.005 0.92125 -0.51 0.4675 0 0 Z " fill="#221F20" transform="translate(224,129)"/>
<path d="M0 0 C0 0.99 0 1.98 0 3 C-1.98 3 -3.96 3 -6 3 C-6.33 2.01 -6.66 1.02 -7 0 C-2.25 -1.125 -2.25 -1.125 0 0 Z " fill="#363334" transform="translate(230,179)"/>
<path d="M0 0 C0.33 0.66 0.66 1.32 1 2 C1.99 1.67 2.98 1.34 4 1 C4.66 2.65 5.32 4.3 6 6 C4.35 6.33 2.7 6.66 1 7 C0.67 4.69 0.34 2.38 0 0 Z " fill="#6F6E6E" transform="translate(148,172)"/>
<path d="M0 0 C0.99 0.66 1.98 1.32 3 2 C3 3.32 3 4.64 3 6 C0.33333333 4.66666667 -2.33333333 3.33333333 -5 2 C-2.6875 0.875 -2.6875 0.875 0 0 Z " fill="#494648" transform="translate(159,168)"/>
<path d="M0 0 C1.14926266 0.95421808 2.29430541 1.91352045 3.4375 2.875 C4.07558594 3.40867187 4.71367187 3.94234375 5.37109375 4.4921875 C7 6 7 6 8 8 C5.625 7.6875 5.625 7.6875 3 7 C1.25372522 4.38058783 0.61277612 2.96175123 0 0 Z " fill="#F2BE8A" transform="translate(186,65)"/>
<path d="M0 0 C0.99 0.33 1.98 0.66 3 1 C3 1.99 3 2.98 3 4 C3.33 4.66 3.66 5.32 4 6 C2.35 6.33 0.7 6.66 -1 7 C-0.67 4.69 -0.34 2.38 0 0 Z " fill="#231F20" transform="translate(138,225)"/>
<path d="M0 0 C-0.33 1.32 -0.66 2.64 -1 4 C-2.65 4 -4.3 4 -6 4 C-6 3.01 -6 2.02 -6 1 C-3 0 -3 0 0 0 Z " fill="#393738" transform="translate(161,178)"/>
<path d="M0 0 C1.98 0 3.96 0 6 0 C6 1.98 6 3.96 6 6 C3.97945196 4.35830472 1.97956942 2.69088222 0 1 C0 0.67 0 0.34 0 0 Z " fill="#F6A047" transform="translate(129,136)"/>
<path d="M0 0 C1.98 0 3.96 0 6 0 C4.71937515 1.7074998 3.38232443 3.37373596 2 5 C1.34 5 0.68 5 0 5 C0 3.35 0 1.7 0 0 Z " fill="#ECAC6E" transform="translate(196,124)"/>
<path d="M0 0 C1.32 0 2.64 0 4 0 C3.67 1.65 3.34 3.3 3 5 C0.525 4.01 0.525 4.01 -2 3 C-1.34 2.01 -0.68 1.02 0 0 Z " fill="#211E1F" transform="translate(234,120)"/>
<path d="M0 0 C1.98 0 3.96 0 6 0 C6 1.98 6 3.96 6 6 C3.97945196 4.35830472 1.97956942 2.69088222 0 1 C0 0.67 0 0.34 0 0 Z " fill="#F6A047" transform="translate(113,120)"/>
<path d="M0 0 C0.99 0.33 1.98 0.66 3 1 C1.35830472 3.02054804 -0.30911778 5.02043058 -2 7 C-2.33 7 -2.66 7 -3 7 C-3 5.35 -3 3.7 -3 2 C-2.34 2 -1.68 2 -1 2 C-0.67 1.34 -0.34 0.68 0 0 Z " fill="#F5B576" transform="translate(173,149)"/>
<path d="M0 0 C0.33 0.66 0.66 1.32 1 2 C1.66 2.33 2.32 2.66 3 3 C0.69 4.65 -1.62 6.3 -4 8 C-4 6.68 -4 5.36 -4 4 C-2.68 4 -1.36 4 0 4 C-0.33 3.01 -0.66 2.02 -1 1 C-0.67 0.67 -0.34 0.34 0 0 Z " fill="#3F1F0D" transform="translate(165,142)"/>
<path d="M0 0 C0.99 0.66 1.98 1.32 3 2 C5.32387947 2.39387788 7.65793749 2.73486085 10 3 C10 3.33 10 3.66 10 4 C6.37 4 2.74 4 -1 4 C-1.33 3.34 -1.66 2.68 -2 2 C-1.34 2 -0.68 2 0 2 C0 1.34 0 0.68 0 0 Z " fill="#585559" transform="translate(187,138)"/>
<path d="M0 0 C-0.66 1.32 -1.32 2.64 -2 4 C-3.65 4 -5.3 4 -7 4 C-6.67 3.01 -6.34 2.02 -6 1 C-4 0 -4 0 0 0 Z " fill="#231F20" transform="translate(240,91)"/>
<path d="M0 0 C1.98 1.65 3.96 3.3 6 5 C4.125 5.625 4.125 5.625 2 6 C1.34 5.34 0.68 4.68 0 4 C0 2.68 0 1.36 0 0 Z " fill="#F1B67C" transform="translate(178,57)"/>
<path d="M0 0 C1.98 1.65 3.96 3.3 6 5 C4.125 5.625 4.125 5.625 2 6 C1.34 5.34 0.68 4.68 0 4 C0 2.68 0 1.36 0 0 Z " fill="#F2B67A" transform="translate(170,49)"/>
</svg>
